<svg width="150" height="150" viewBox="0 0 150 150" fill="none" xmlns="http://www.w3.org/2000/svg">
<path d="M97.2675 54.7849C100.198 51.8541 98.8619 48.431 97.2675 46.7663L90.2332 39.7324C87.2789 36.8017 83.879 38.1381 82.2142 39.7324L78.2281 43.7417H72.1553C67.7002 43.7417 65.121 46.0864 63.808 48.7827L53.3973 59.1928V68.5713L51.7325 70.2125C48.8016 73.1667 50.1381 76.5664 51.7325 78.2311L58.7668 85.265C60.0329 86.5311 61.3929 87 62.6825 87C64.3473 87 65.8713 86.1794 66.7858 85.265L73.1166 78.9111H81.5342C85.5203 78.9111 87.5368 76.4258 88.2636 73.9874C90.9132 73.284 92.367 71.2676 92.9531 69.2981C96.5875 68.3603 97.9474 64.9137 97.9474 62.4987V55.4649H96.564L97.2675 54.7849ZM93.258 62.4987C93.258 63.5538 92.8125 64.8433 90.9132 64.8433H88.5685V67.188C88.5685 68.243 88.123 69.5326 86.2237 69.5326H83.879V71.8772C83.879 72.9323 83.4335 74.2218 81.5342 74.2218H71.1939L63.5032 81.9122C62.7763 82.5921 62.3542 82.1935 62.0963 81.9356L55.0855 74.9486C54.4055 74.2218 54.8042 73.7998 55.0621 73.5419L58.0868 70.4939V61.1154L62.7763 56.4261V60.1541C62.7763 62.9911 64.6521 67.188 69.8105 67.188C74.969 67.188 76.8447 62.9911 76.8447 60.1541H93.258V62.4987ZM93.9379 51.4556L89.9519 55.4649H72.1553V60.1541C72.1553 61.2092 71.7098 62.4987 69.8105 62.4987C67.9113 62.4987 67.4658 61.2092 67.4658 60.1541V53.1202C67.4658 52.0417 67.8644 48.431 72.1553 48.431H80.1508L85.4969 43.0853C86.2237 42.4053 86.6458 42.8039 86.9037 43.0618L93.9145 50.0488C94.5945 50.7756 94.1959 51.1976 93.9379 51.4556Z" fill="black"/>
<path d="M25.7681 112.48C25.7681 113.293 25.5815 114.04 25.2081 114.72C24.8348 115.387 24.2615 115.927 23.4881 116.34C22.7148 116.753 21.7548 116.96 20.6081 116.96H18.4881V122H15.0681V107.96H20.6081C21.7281 107.96 22.6748 108.153 23.4481 108.54C24.2215 108.927 24.8015 109.46 25.1881 110.14C25.5748 110.82 25.7681 111.6 25.7681 112.48ZM20.3481 114.24C21.0015 114.24 21.4881 114.087 21.8081 113.78C22.1281 113.473 22.2881 113.04 22.2881 112.48C22.2881 111.92 22.1281 111.487 21.8081 111.18C21.4881 110.873 21.0015 110.72 20.3481 110.72H18.4881V114.24H20.3481ZM26.8686 116.4C26.8686 115.253 27.0819 114.247 27.5086 113.38C27.9486 112.513 28.5419 111.847 29.2886 111.38C30.0353 110.913 30.8686 110.68 31.7886 110.68C32.5753 110.68 33.2619 110.84 33.8486 111.16C34.4486 111.48 34.9086 111.9 35.2286 112.42V110.84H38.6486V122H35.2286V120.42C34.8953 120.94 34.4286 121.36 33.8286 121.68C33.2419 122 32.5553 122.16 31.7686 122.16C30.8619 122.16 30.0353 121.927 29.2886 121.46C28.5419 120.98 27.9486 120.307 27.5086 119.44C27.0819 118.56 26.8686 117.547 26.8686 116.4ZM35.2286 116.42C35.2286 115.567 34.9886 114.893 34.5086 114.4C34.0419 113.907 33.4686 113.66 32.7886 113.66C32.1086 113.66 31.5286 113.907 31.0486 114.4C30.5819 114.88 30.3486 115.547 30.3486 116.4C30.3486 117.253 30.5819 117.933 31.0486 118.44C31.5286 118.933 32.1086 119.18 32.7886 119.18C33.4686 119.18 34.0419 118.933 34.5086 118.44C34.9886 117.947 35.2286 117.273 35.2286 116.42ZM44.5428 112.7C44.9428 112.087 45.4428 111.607 46.0428 111.26C46.6428 110.9 47.3095 110.72 48.0428 110.72V114.34H47.1028C46.2495 114.34 45.6095 114.527 45.1828 114.9C44.7561 115.26 44.5428 115.9 44.5428 116.82V122H41.1228V110.84H44.5428V112.7ZM55.8975 119.1V122H54.1575C52.9175 122 51.9508 121.7 51.2575 121.1C50.5642 120.487 50.2175 119.493 50.2175 118.12V113.68H48.8575V110.84H50.2175V108.12H53.6375V110.84H55.8775V113.68H53.6375V118.16C53.6375 118.493 53.7175 118.733 53.8775 118.88C54.0375 119.027 54.3042 119.1 54.6775 119.1H55.8975ZM64.6025 110.72C65.9092 110.72 66.9492 111.147 67.7225 112C68.5092 112.84 68.9025 114 68.9025 115.48V122H65.5025V115.94C65.5025 115.193 65.3092 114.613 64.9225 114.2C64.5358 113.787 64.0158 113.58 63.3625 113.58C62.7092 113.58 62.1892 113.787 61.8025 114.2C61.4158 114.613 61.2225 115.193 61.2225 115.94V122H57.8025V110.84H61.2225V112.32C61.5692 111.827 62.0358 111.44 62.6225 111.16C63.2092 110.867 63.8692 110.72 64.6025 110.72ZM81.7991 116.24C81.7991 116.56 81.7791 116.893 81.7391 117.24H73.9991C74.0524 117.933 74.2724 118.467 74.6591 118.84C75.0591 119.2 75.5457 119.38 76.1191 119.38C76.9724 119.38 77.5657 119.02 77.8991 118.3H81.5391C81.3524 119.033 81.0124 119.693 80.5191 120.28C80.0391 120.867 79.4324 121.327 78.6991 121.66C77.9657 121.993 77.1457 122.16 76.2391 122.16C75.1457 122.16 74.1724 121.927 73.3191 121.46C72.4657 120.993 71.7991 120.327 71.3191 119.46C70.8391 118.593 70.5991 117.58 70.5991 116.42C70.5991 115.26 70.8324 114.247 71.2991 113.38C71.7791 112.513 72.4457 111.847 73.2991 111.38C74.1524 110.913 75.1324 110.68 76.2391 110.68C77.3191 110.68 78.2791 110.907 79.1191 111.36C79.9591 111.813 80.6124 112.46 81.0791 113.3C81.5591 114.14 81.7991 115.12 81.7991 116.24ZM78.2991 115.34C78.2991 114.753 78.0991 114.287 77.6991 113.94C77.2991 113.593 76.7991 113.42 76.1991 113.42C75.6257 113.42 75.1391 113.587 74.7391 113.92C74.3524 114.253 74.1124 114.727 74.0191 115.34H78.2991ZM87.0233 112.7C87.4233 112.087 87.9233 111.607 88.5233 111.26C89.1233 110.9 89.7899 110.72 90.5233 110.72V114.34H89.5833C88.7299 114.34 88.0899 114.527 87.6633 114.9C87.2366 115.26 87.0233 115.9 87.0233 116.82V122H83.6033V110.84H87.0233V112.7ZM97.238 122.14C96.2113 122.14 95.2913 121.973 94.478 121.64C93.6646 121.307 93.0113 120.813 92.518 120.16C92.038 119.507 91.7846 118.72 91.758 117.8H95.398C95.4513 118.32 95.6313 118.72 95.938 119C96.2446 119.267 96.6446 119.4 97.138 119.4C97.6446 119.4 98.0446 119.287 98.338 119.06C98.6313 118.82 98.778 118.493 98.778 118.08C98.778 117.733 98.658 117.447 98.418 117.22C98.1913 116.993 97.9046 116.807 97.558 116.66C97.2246 116.513 96.7446 116.347 96.118 116.16C95.2113 115.88 94.4713 115.6 93.898 115.32C93.3246 115.04 92.8313 114.627 92.418 114.08C92.0046 113.533 91.798 112.82 91.798 111.94C91.798 110.633 92.2713 109.613 93.218 108.88C94.1646 108.133 95.398 107.76 96.918 107.76C98.4646 107.76 99.7113 108.133 100.658 108.88C101.605 109.613 102.111 110.64 102.178 111.96H98.478C98.4513 111.507 98.2846 111.153 97.978 110.9C97.6713 110.633 97.278 110.5 96.798 110.5C96.3846 110.5 96.0513 110.613 95.798 110.84C95.5446 111.053 95.418 111.367 95.418 111.78C95.418 112.233 95.6313 112.587 96.058 112.84C96.4846 113.093 97.1513 113.367 98.058 113.66C98.9646 113.967 99.698 114.26 100.258 114.54C100.831 114.82 101.325 115.227 101.738 115.76C102.151 116.293 102.358 116.98 102.358 117.82C102.358 118.62 102.151 119.347 101.738 120C101.338 120.653 100.751 121.173 99.978 121.56C99.2046 121.947 98.2913 122.14 97.238 122.14ZM111.323 110.72C112.603 110.72 113.629 111.147 114.403 112C115.176 112.84 115.563 114 115.563 115.48V122H112.163V115.94C112.163 115.193 111.969 114.613 111.583 114.2C111.196 113.787 110.676 113.58 110.023 113.58C109.369 113.58 108.849 113.787 108.463 114.2C108.076 114.613 107.883 115.193 107.883 115.94V122H104.463V107.2H107.883V112.34C108.229 111.847 108.703 111.453 109.303 111.16C109.903 110.867 110.576 110.72 111.323 110.72ZM119.659 109.68C119.059 109.68 118.566 109.507 118.179 109.16C117.806 108.8 117.619 108.36 117.619 107.84C117.619 107.307 117.806 106.867 118.179 106.52C118.566 106.16 119.059 105.98 119.659 105.98C120.246 105.98 120.726 106.16 121.099 106.52C121.486 106.867 121.679 107.307 121.679 107.84C121.679 108.36 121.486 108.8 121.099 109.16C120.726 109.507 120.246 109.68 119.659 109.68ZM121.359 110.84V122H117.939V110.84H121.359ZM127.258 112.42C127.591 111.9 128.051 111.48 128.638 111.16C129.224 110.84 129.911 110.68 130.698 110.68C131.618 110.68 132.451 110.913 133.198 111.38C133.944 111.847 134.531 112.513 134.958 113.38C135.398 114.247 135.618 115.253 135.618 116.4C135.618 117.547 135.398 118.56 134.958 119.44C134.531 120.307 133.944 120.98 133.198 121.46C132.451 121.927 131.618 122.16 130.698 122.16C129.924 122.16 129.238 122 128.638 121.68C128.051 121.36 127.591 120.947 127.258 120.44V127.32H123.838V110.84H127.258V112.42ZM132.138 116.4C132.138 115.547 131.898 114.88 131.418 114.4C130.951 113.907 130.371 113.66 129.678 113.66C128.998 113.66 128.418 113.907 127.938 114.4C127.471 114.893 127.238 115.567 127.238 116.42C127.238 117.273 127.471 117.947 127.938 118.44C128.418 118.933 128.998 119.18 129.678 119.18C130.358 119.18 130.938 118.933 131.418 118.44C131.898 117.933 132.138 117.253 132.138 116.4Z" fill="black"/>
<circle cx="74.5" cy="62.5" r="35" stroke="black" stroke-width="5"/>
</svg>
